<?xml version="1.0" encoding="UTF-8" standalone="no"?>
<svg
   version="1.1"
   width="59mm"
   height="49mm"
   viewBox="0 0 59 49"
   id="svg1290"
   sodipodi:docname="arc_generator_topology.svg"
   inkscape:version="1.4.2 (f4327f4, 2025-05-13)"
   xmlns:inkscape="http://www.inkscape.org/namespaces/inkscape"
   xmlns:sodipodi="http://sodipodi.sourceforge.net/DTD/sodipodi-0.dtd"
   xmlns="http://www.w3.org/2000/svg"
   xmlns:svg="http://www.w3.org/2000/svg"
   xmlns:rdf="http://www.w3.org/1999/02/22-rdf-syntax-ns#"
   xmlns:cc="http://creativecommons.org/ns#"
   xmlns:dc="http://purl.org/dc/elements/1.1/">
  <defs
     id="defs1290" />
  <sodipodi:namedview
     id="namedview1290"
     pagecolor="#ffffff"
     bordercolor="#000000"
     borderopacity="0.25"
     inkscape:showpageshadow="2"
     inkscape:pageopacity="0.0"
     inkscape:pagecheckerboard="0"
     inkscape:deskcolor="#d1d1d1"
     inkscape:document-units="mm"
     showgrid="false"
     inkscape:zoom="4.073048"
     inkscape:cx="132.08781"
     inkscape:cy="102.01206"
     inkscape:window-width="2560"
     inkscape:window-height="1361"
     inkscape:window-x="-9"
     inkscape:window-y="-9"
     inkscape:window-maximized="1"
     inkscape:current-layer="svg1290" />
  <title
     id="title1">SVG Image created as switching_states.svg date 2025/08/30 20:48:27 </title>
  <desc
     id="desc1">Image generated by Eeschema-SVG </desc>
  <g
     style="fill:#000000;fill-opacity:1;stroke:#000000;stroke-linecap:round;stroke-linejoin:round;stroke-opacity:1"
     transform="translate(-18.36522,-18.843021)"
     id="g1" />
  <g
     style="fill:none;stroke:#840000;stroke-width:0.3;stroke-linecap:round;stroke-linejoin:round;stroke-opacity:1"
     id="g158"
     transform="translate(-18.36522,-18.843021)">
    <text
       x="178.0022"
       y="180.7572"
       textLength="0"
       font-size="2px"
       lengthAdjust="spacingAndGlyphs"
       text-anchor="start"
       opacity="0"
       stroke-opacity="0"
       id="text156" />
    <g
       class="stroked-text"
       id="g157">
      <desc
         id="desc156" />
    </g>
  </g>
  <g
     style="fill:#ffffc2;fill-opacity:1;stroke:none"
     id="g345"
     transform="translate(-18.36522,-18.843021)">
    <rect
       x="72.389999"
       y="45.720001"
       width="2.54"
       height="5.0799999"
       rx="0.000000"
       id="rect344" />
  </g>
  <g
     style="fill:none;stroke:#840000;stroke-width:0.254;stroke-linecap:round;stroke-linejoin:round;stroke-opacity:1"
     id="g346"
     transform="translate(-18.36522,-18.843021)">
    <rect
       x="72.389999"
       y="45.720001"
       width="2.54"
       height="5.0799999"
       rx="0.000000"
       id="rect345" />
  </g>
  <g
     style="fill:none;stroke:#840000;stroke-width:0.1524;stroke-linecap:round;stroke-linejoin:round;stroke-opacity:1"
     id="g350"
     transform="translate(-18.36522,-18.843021)">
    <circle
       cx="73.660004"
       cy="49.529999"
       r="0.63499999"
       id="circle346" />
    <path
       style="fill:none;stroke:#840000;stroke-width:0.1524;stroke-linecap:round;stroke-linejoin:round;stroke-opacity:1"
       d="m 73.1266,49.1998 0.8636,0.8382"
       id="path346" />
    <path
       style="fill:none;stroke:#840000;stroke-width:0.1524;stroke-linecap:round;stroke-linejoin:round;stroke-opacity:1"
       d="m 73.1266,46.6598 0.8636,0.8382"
       id="path347" />
    <path
       style="fill:none;stroke:#840000;stroke-width:0.1524;stroke-linecap:round;stroke-linejoin:round;stroke-opacity:1"
       d="m 73.3044,49.022 0.8636,0.8382"
       id="path348" />
    <path
       style="fill:none;stroke:#840000;stroke-width:0.1524;stroke-linecap:round;stroke-linejoin:round;stroke-opacity:1"
       d="m 73.3044,46.482 0.8636,0.8382"
       id="path349" />
    <circle
       cx="73.660004"
       cy="46.990002"
       r="0.63499999"
       id="circle349" />
    <path
       d="M 72.39,46.99 H 68.58"
       id="path350" />
  </g>
  <g
     style="fill:none;stroke:#a90000;stroke-width:0.1524;stroke-linecap:round;stroke-linejoin:round;stroke-opacity:1"
     id="g352"
     transform="translate(-18.36522,-18.843021)">
    <text
       x="70.485001"
       y="46.736"
       textLength="0.98509997"
       font-size="1.6933px"
       lengthAdjust="spacingAndGlyphs"
       text-anchor="middle"
       opacity="0"
       stroke-opacity="0"
       id="text350">1</text>
    <g
       class="stroked-text"
       id="g351">
      <desc
         id="desc350">1</desc>
      <path
         style="fill:#a90000;fill-opacity:1;fill-rule:evenodd;stroke:none"
         d="m 70.3231,45.2297 h 0.2522 v 1.2904 h -0.1275 v -1.1713 h -0.2016 z"
         id="path351" />
    </g>
  </g>
  <g
     style="fill:none;stroke:#840000;stroke-width:0.1524;stroke-linecap:round;stroke-linejoin:round;stroke-opacity:1"
     id="g353"
     transform="translate(-18.36522,-18.843021)">
    <path
       d="M 72.39,49.53 H 68.58"
       id="path352" />
  </g>
  <g
     style="fill:none;stroke:#a90000;stroke-width:0.1524;stroke-linecap:round;stroke-linejoin:round;stroke-opacity:1"
     id="g355"
     transform="translate(-18.36522,-18.843021)">
    <text
       x="70.485001"
       y="49.276001"
       textLength="0.98509997"
       font-size="1.6933px"
       lengthAdjust="spacingAndGlyphs"
       text-anchor="middle"
       opacity="0"
       stroke-opacity="0"
       id="text353">2</text>
    <g
       class="stroked-text"
       id="g354">
      <desc
         id="desc353">2</desc>
      <path
         style="fill:#a90000;fill-opacity:1;fill-rule:evenodd;stroke:none"
         d="m 70.1993,48.1667 h -0.1231 l 0.0061,-0.0661 0.0142,-0.0615 0.027,-0.066 0.0381,-0.0598 0.0415,-0.0462 0.0477,-0.0399 0.0607,-0.0361 0.0661,-0.0248 0.061,-0.0124 0.065,-0.0041 0.0641,0.004 0.0687,0.0149 0.0622,0.0258 0.0558,0.0368 0.0359,0.033 0.0426,0.0519 0.0322,0.0559 0.0217,0.0598 0.0112,0.0637 0.0018,0.0382 -0.0052,0.0668 -0.0153,0.0641 -0.0256,0.0615 -0.0064,0.012 -0.0371,0.0591 -0.0397,0.0534 -0.0416,0.0509 -0.0485,0.0556 -0.0362,0.0397 -0.3192,0.344 h 0.5921 v 0.1192 h -0.8713 l 0.4901,-0.5258 0.0441,-0.048 0.0462,-0.0523 0.0446,-0.0536 0.0387,-0.0515 0.0206,-0.0319 0.0274,-0.0593 0.0147,-0.0616 0.0029,-0.0423 -0.0079,-0.0647 -0.0236,-0.0588 -0.0394,-0.053 -0.0098,-0.0099 -0.0539,-0.0414 -0.0611,-0.026 -0.0681,-0.0108 -0.0145,-3e-4 -0.066,0.0062 -0.0594,0.0186 -0.0583,0.0351 -0.021,0.0183 -0.0402,0.049 -0.0292,0.059 -0.0166,0.0608 z"
         id="path353" />
    </g>
  </g>
  <text
     x="73.547401"
     y="53.213001"
     textLength="3.8388"
     font-size="1.6933px"
     lengthAdjust="spacingAndGlyphs"
     text-anchor="middle"
     opacity="0"
     stroke-opacity="0"
     id="text355"
     transform="translate(-18.36522,-18.843021)"
     style="fill:none;stroke:#006464;stroke-width:0.1524;stroke-linecap:round;stroke-linejoin:round">ARC</text>
  <g
     class="stroked-text"
     id="g357"
     transform="translate(-18.36522,-18.843021)"
     style="fill:none;stroke:#006464;stroke-width:0.1524;stroke-linecap:round;stroke-linejoin:round;stroke-opacity:1">
    <desc
       id="desc355">ARC</desc>
    <path
       style="fill:#006464;fill-opacity:1;fill-rule:evenodd;stroke:none"
       d="m 72.9069,53.1051 h -0.1378 l -0.2016,-0.4368 h -0.5531 l -0.2006,0.4368 h -0.143 l 0.2612,-0.5559 h 0.1401 0.4386 l -0.218,-0.4675 -0.2206,0.4675 H 71.932 l 0.3452,-0.7345 h 0.0313 z"
       id="path355" />
    <path
       style="fill:#006464;fill-opacity:1;fill-rule:evenodd;stroke:none"
       d="m 73.4253,51.8151 0.0672,0.0016 0.0662,0.0034 0.0656,0.0067 0.027,0.0049 0.061,0.0192 0.0597,0.0322 0.0514,0.0437 0.0137,0.0154 0.0378,0.0565 0.0238,0.0642 0.0094,0.0643 7e-4,0.0228 -0.0049,0.0619 -0.0164,0.0626 -0.0281,0.0566 -0.0388,0.0491 -0.0489,0.0401 -0.0531,0.0287 -0.064,0.021 -0.061,0.0114 -0.0698,0.0065 -0.058,0.0017 0.4616,0.6155 h -0.1588 l -0.4607,-0.6155 h -0.0735 v 0.6155 h -0.1281 v -0.7346 h 0.1281 l 0.2209,0.0016 0.0668,-0.002 0.0618,-0.0067 0.0609,-0.0158 0.0549,-0.0318 0.0413,-0.0464 0.0258,-0.0568 0.0086,-0.0632 -0.0088,-0.0616 -0.0263,-0.0557 -0.0431,-0.0478 -0.0484,-0.0279 -0.064,-0.0155 -0.0632,-0.0057 -0.0611,-0.0014 h -0.2261 v 0.4367 h -0.1281 v -0.5558 h 0.2556 z"
       id="path356" />
    <path
       style="fill:#006464;fill-opacity:1;fill-rule:evenodd;stroke:none"
       d="m 75.3729,52.0548 -0.1015,0.0775 -0.044,-0.0504 -0.0482,-0.044 -0.0524,-0.0375 -0.0567,-0.0309 -0.06,-0.0243 -0.063,-0.0174 -0.0658,-0.0104 -0.0686,-0.0035 -0.0661,0.0035 -0.064,0.0105 -0.0617,0.0176 -0.0596,0.0245 -0.0331,0.0171 -0.0544,0.0345 -0.0488,0.0392 -0.0489,0.0507 -0.0415,0.0571 -0.0093,0.0152 -0.028,0.0554 -0.0211,0.0583 -0.0143,0.0613 -0.0074,0.0642 -0.0011,0.0381 0.0039,0.0709 0.0118,0.0672 0.0197,0.0634 0.0275,0.0596 0.0353,0.0559 0.0433,0.0522 0.0195,0.0198 0.0523,0.0448 0.0565,0.0373 0.0606,0.0296 0.0646,0.0221 0.0688,0.0144 0.0729,0.0069 0.0303,6e-4 0.066,-0.0034 0.0633,-0.0103 0.0605,-0.017 0.0577,-0.0239 0.055,-0.0307 0.0523,-0.0375 0.0495,-0.0444 0.0467,-0.0512 0.1015,0.0769 -0.0443,0.0518 -0.0488,0.0463 -0.0533,0.041 -0.058,0.0356 -0.0351,0.018 -0.0644,0.0264 -0.0677,0.02 -0.0708,0.0135 -0.0633,0.0063 -0.0545,0.0017 -0.082,-0.0035 -0.0776,-0.0103 -0.0731,-0.0173 -0.0686,-0.0242 -0.0642,-0.0311 -0.0598,-0.038 -0.0553,-0.0449 -0.0508,-0.0519 -0.047,-0.0603 -0.039,-0.0641 -0.0311,-0.0679 -0.0231,-0.0716 -0.0151,-0.0755 -0.0064,-0.063 -0.0015,-0.0489 0.0031,-0.0681 0.0093,-0.0653 0.0154,-0.0626 0.0216,-0.0599 0.0278,-0.0571 0.034,-0.0543 0.0401,-0.0516 0.0463,-0.0489 0.051,-0.0444 0.0541,-0.0386 0.0572,-0.0326 0.0603,-0.0267 0.0634,-0.0208 0.0666,-0.0148 0.0697,-0.0089 0.0728,-0.003 0.0662,0.0024 0.0638,0.0073 0.0613,0.012 0.0684,0.0202 0.0651,0.0267 0.0608,0.0324 0.0559,0.0378 0.0508,0.043 0.0458,0.0482 z"
       id="path357" />
  </g>
  <path
     style="fill:none;stroke:#840000;stroke-width:0.1524;stroke-linecap:round;stroke-linejoin:round;stroke-opacity:1"
     d="m 5.76478,44.656979 v 1.27 h 1.27 l -1.27,1.27 -1.27,-1.27 h 1.27"
     id="path539" />
  <path
     style="fill:none;stroke:#840000;stroke-width:0.254;stroke-linecap:round;stroke-linejoin:round;stroke-opacity:1"
     d="m 6.78078,36.274979 h -2.032"
     id="path540" />
  <path
     style="fill:none;stroke:#840000;stroke-width:0.1524;stroke-linecap:round;stroke-linejoin:round;stroke-opacity:1"
     d="m 5.76478,36.274979 v 1.524"
     id="path541" />
  <path
     style="fill:none;stroke:#840000;stroke-width:0.254;stroke-linecap:round;stroke-linejoin:round;stroke-opacity:1"
     d="m 6.78078,37.798979 -1.016,-1.524 -1.016,1.524 z"
     id="path542" />
  <g
     style="fill:none;stroke:#840000;stroke-width:0.1524;stroke-linecap:round;stroke-linejoin:round;stroke-opacity:1"
     id="g544"
     transform="translate(-18.36522,-18.843021)">
    <path
       d="M 24.13,55.118 V 53.34"
       id="path543" />
    <path
       d="M 24.13,56.642 V 58.42"
       id="path544" />
  </g>
  <text
     x="22.4681"
     y="54.229"
     textLength="2.3078001"
     font-size="1.6933px"
     lengthAdjust="spacingAndGlyphs"
     text-anchor="middle"
     opacity="0"
     stroke-opacity="0"
     id="text544"
     transform="translate(-18.36522,-18.843021)"
     style="fill:none;stroke:#006464;stroke-width:0.1524;stroke-linecap:round;stroke-linejoin:round">D2</text>
  <g
     class="stroked-text"
     id="g546"
     transform="translate(-18.36522,-18.843021)"
     style="fill:none;stroke:#006464;stroke-width:0.1524;stroke-linecap:round;stroke-linejoin:round;stroke-opacity:1">
    <desc
       id="desc544">D2</desc>
    <path
       style="fill:#006464;fill-opacity:1;fill-rule:evenodd;stroke:none"
       d="m 21.8058,52.8314 0.0646,0.0022 0.0737,0.0047 0.0661,0.0071 0.0691,0.0114 0.0666,0.0175 0.0082,0.0029 0.0672,0.028 0.0614,0.0349 0.0557,0.0416 0.05,0.0484 0.0442,0.0552 0.0134,0.0199 0.0358,0.063 0.0283,0.0674 0.018,0.0595 0.0128,0.0626 0.0077,0.0656 0.0026,0.0687 -0.003,0.0711 -0.0088,0.0678 -0.0146,0.0646 -0.0206,0.0613 -0.0264,0.0581 -0.0101,0.0186 -0.0387,0.0608 -0.0436,0.0533 -0.0483,0.046 -0.0531,0.0386 -0.0325,0.0187 -0.0633,0.0274 -0.0624,0.018 -0.07,0.0132 -0.0641,0.0072 -0.0692,0.0037 -0.0441,7e-4 h -0.4082 v -0.1192 h 0.1231 0.1483 l 0.064,-5e-4 0.0728,-0.0021 0.0648,-0.0038 0.0673,-0.0066 0.064,-0.0108 0.0362,-0.0097 0.0604,-0.0245 0.0545,-0.0319 0.0485,-0.0393 0.0426,-0.0465 0.0217,-0.0299 0.0323,-0.0571 0.0243,-0.0623 0.0164,-0.0677 0.0078,-0.0621 0.002,-0.0548 -0.0032,-0.0688 -0.0094,-0.0649 -0.0158,-0.061 -0.0265,-0.0663 -0.035,-0.061 -0.0427,-0.0544 -0.0494,-0.0465 -0.0562,-0.0383 -0.063,-0.0304 -0.0391,-0.0137 -0.0699,-0.0163 -0.0653,-0.0091 -0.0628,-0.0057 -0.0704,-0.0038 -0.0781,-0.002 -0.0505,-3e-4 h -0.0906 v 1.0521 h -0.1231 v -1.1712 h 0.2661 z"
       id="path545" />
    <path
       style="fill:#006464;fill-opacity:1;fill-rule:evenodd;stroke:none"
       d="m 22.8437,53.2277 h -0.1232 l 0.0061,-0.0661 0.0143,-0.0615 0.0269,-0.066 0.0381,-0.0598 0.0415,-0.0462 0.0477,-0.0399 0.0607,-0.0361 0.0662,-0.0248 0.061,-0.0124 0.065,-0.0041 0.064,0.004 0.0687,0.0149 0.0623,0.0258 0.0557,0.0368 0.0359,0.033 0.0427,0.0519 0.0321,0.0559 0.0218,0.0598 0.0112,0.0637 0.0017,0.0382 -0.0051,0.0668 -0.0154,0.0641 -0.0256,0.0615 -0.0063,0.012 -0.0372,0.0591 -0.0397,0.0534 -0.0416,0.0509 -0.0485,0.0556 -0.0362,0.0397 -0.3192,0.344 h 0.5922 v 0.1192 h -0.8714 l 0.4901,-0.5258 0.0441,-0.048 0.0462,-0.0523 0.0446,-0.0536 0.0388,-0.0515 0.0205,-0.0319 0.0274,-0.0593 0.0148,-0.0616 0.0028,-0.0423 -0.0079,-0.0647 -0.0236,-0.0588 -0.0394,-0.053 -0.0098,-0.0099 -0.0539,-0.0414 -0.061,-0.026 -0.0682,-0.0108 -0.0144,-3e-4 -0.066,0.0062 -0.0594,0.0186 -0.0583,0.0351 -0.0211,0.0183 -0.0402,0.049 -0.0291,0.059 -0.0167,0.0608 z"
       id="path546" />
  </g>
  <g
     style="fill:none;stroke:#840000;stroke-width:0.254;stroke-linecap:round;stroke-linejoin:round;stroke-opacity:1"
     id="g578"
     transform="translate(-18.36522,-18.843021)">
    <circle
       cx="30.48"
       cy="46.990002"
       r="2.54"
       id="circle577" />
  </g>
  <g
     style="fill:none;stroke:#840000;stroke-width:0.375;stroke-linecap:round;stroke-linejoin:round;stroke-opacity:1"
     id="g580"
     transform="translate(-18.36522,-18.843021)">
    <text
       x="30.48"
       y="48.490101"
       textLength="3.1066999"
       font-size="4px"
       lengthAdjust="spacingAndGlyphs"
       text-anchor="middle"
       opacity="0"
       stroke-opacity="0"
       id="text578">A</text>
    <g
       class="stroked-text"
       id="g579">
      <desc
         id="desc578">A</desc>
      <path
         style="fill:#840000;fill-opacity:1;fill-rule:evenodd;stroke:none"
         d="m 31.9477,48.2351 h -0.3253 l -0.4763,-1.0317 h -1.3065 l -0.474,1.0317 h -0.3378 l 0.6171,-1.3131 h 0.331 1.0361 l -0.5151,-1.1042 -0.521,1.1042 h -0.331 l 0.8154,-1.7351 h 0.074 z"
         id="path578" />
    </g>
  </g>
  <g
     style="fill:none;stroke:#840000;stroke-width:0.1524;stroke-linecap:round;stroke-linejoin:round;stroke-opacity:1"
     id="g581"
     transform="translate(-18.36522,-18.843021)">
    <path
       d="m 33.02,46.99 h 1.27"
       id="path580" />
    <path
       d="M 27.94,46.99 H 26.67"
       id="path581" />
  </g>
  <g
     style="fill:none;stroke:#006464;stroke-width:0.1524;stroke-linecap:round;stroke-linejoin:round;stroke-opacity:1"
     id="g585"
     transform="translate(-18.36522,-18.843021)">
    <text
       x="30.6136"
       y="43.053001"
       textLength="3.3152001"
       font-size="1.6933px"
       lengthAdjust="spacingAndGlyphs"
       text-anchor="middle"
       opacity="0"
       stroke-opacity="0"
       id="text581">CS1</text>
    <g
       class="stroked-text"
       id="g584">
      <desc
         id="desc581">CS1</desc>
      <path
         style="fill:#006464;fill-opacity:1;fill-rule:evenodd;stroke:none"
         d="m 30.3074,41.8948 -0.1014,0.0775 -0.044,-0.0504 -0.0482,-0.044 -0.0524,-0.0375 -0.0567,-0.0309 -0.0601,-0.0243 -0.0629,-0.0174 -0.0658,-0.0104 -0.0687,-0.0035 -0.0661,0.0035 -0.0639,0.0105 -0.0617,0.0176 -0.0596,0.0245 -0.0331,0.0171 -0.0545,0.0345 -0.0488,0.0392 -0.0488,0.0507 -0.0415,0.0571 -0.0093,0.0152 -0.028,0.0554 -0.0212,0.0583 -0.0142,0.0613 -0.0074,0.0642 -0.0011,0.0381 0.0039,0.0709 0.0118,0.0672 0.0196,0.0634 0.0276,0.0596 0.0353,0.0559 0.0433,0.0522 0.0195,0.0198 0.0523,0.0448 0.0565,0.0373 0.0606,0.0296 0.0646,0.0221 0.0688,0.0144 0.0729,0.0069 0.0303,6e-4 0.066,-0.0034 0.0633,-0.0103 0.0605,-0.017 0.0577,-0.0239 0.055,-0.0307 0.0523,-0.0375 0.0495,-0.0444 0.0467,-0.0512 0.1014,0.0769 -0.0442,0.0518 -0.0488,0.0463 -0.0533,0.041 -0.058,0.0356 -0.0351,0.018 -0.0645,0.0264 -0.0676,0.02 -0.0708,0.0135 -0.0633,0.0063 -0.0546,0.0017 -0.082,-0.0035 -0.0775,-0.0103 -0.0731,-0.0173 -0.0686,-0.0242 -0.0642,-0.0311 -0.0598,-0.038 -0.0553,-0.0449 -0.0508,-0.0519 -0.047,-0.0603 -0.0391,-0.0641 -0.031,-0.0679 -0.0231,-0.0716 -0.0152,-0.0755 -0.0063,-0.063 -0.0015,-0.0489 0.0031,-0.0681 0.0093,-0.0653 0.0154,-0.0626 0.0216,-0.0599 0.0278,-0.0571 0.034,-0.0543 0.0401,-0.0516 0.0463,-0.0489 0.051,-0.0444 0.0541,-0.0386 0.0572,-0.0326 0.0603,-0.0267 0.0634,-0.0208 0.0666,-0.0148 0.0697,-0.0089 0.0728,-0.003 0.0662,0.0024 0.0638,0.0073 0.0613,0.012 0.0684,0.0202 0.065,0.0267 0.0609,0.0324 0.0559,0.0378 0.0508,0.043 0.0458,0.0482 z"
         id="path582" />
      <path
         style="fill:#006464;fill-opacity:1;fill-rule:evenodd;stroke:none"
         d="m 30.425,42.6929 0.1092,-0.0655 0.0368,0.0629 0.0386,0.0523 0.0486,0.0486 0.0598,0.0373 0.0633,0.0164 0.0187,9e-4 0.0626,-0.0075 0.0587,-0.0226 0.0526,-0.038 0.0336,-0.043 0.0241,-0.0591 0.0057,-0.0485 -0.0109,-0.0641 -0.0301,-0.0589 -0.0027,-0.0039 -0.0417,-0.0509 -0.0503,-0.0498 -0.0541,-0.0472 -0.054,-0.0431 -0.0195,-0.0149 -0.0559,-0.0431 -0.0545,-0.0444 -0.048,-0.0427 -0.0414,-0.0451 -0.0358,-0.0566 -0.0226,-0.0595 -0.0093,-0.0622 -2e-4,-0.0128 0.0066,-0.0638 0.0198,-0.0591 0.0136,-0.0256 0.0381,-0.05 0.0487,-0.0404 0.0261,-0.0154 0.0613,-0.0251 0.0655,-0.0123 0.0317,-0.0014 0.0663,0.006 0.0629,0.0179 0.0402,0.0186 0.0554,0.0377 0.047,0.0433 0.0429,0.048 0.0219,0.0273 -0.1046,0.0791 -0.039,-0.0493 -0.0431,-0.0461 -0.0413,-0.0324 -0.0605,-0.025 -0.0509,-0.006 -0.0624,0.0091 -0.055,0.0296 -0.0095,0.0085 -0.0369,0.0526 -0.0124,0.0634 0.0098,0.0614 0.0076,0.0199 0.0355,0.0546 0.0284,0.031 0.0489,0.0404 0.0537,0.041 0.0544,0.0406 0.0086,0.0064 0.0496,0.0375 0.0527,0.0434 0.0522,0.0481 0.0421,0.0457 0.032,0.043 0.0328,0.0596 0.0206,0.0598 0.0086,0.066 10e-5,0.006 -0.0067,0.0671 -0.0198,0.0625 -0.0332,0.058 -0.0464,0.0534 -0.0486,0.0399 -0.0609,0.0336 -0.0666,0.0208 -0.0629,0.0077 -0.0188,4e-4 L 30.7484,42.96 30.6877,42.9452 30.6305,42.9205 30.6003,42.9026 30.548,42.8606 30.5035,42.8122 30.4661,42.7611 30.43,42.702 Z"
         id="path583" />
      <path
         style="fill:#006464;fill-opacity:1;fill-rule:evenodd;stroke:none"
         d="m 31.6167,41.6547 h 0.2522 v 1.2904 h -0.1275 v -1.1713 h -0.2016 z"
         id="path584" />
    </g>
  </g>
  <path
     style="fill:none;fill-opacity:1;stroke:#840000;stroke-width:0.1524;stroke-linecap:round;stroke-linejoin:round;stroke-opacity:1"
     d="m 3.4787794,17.986979 h -1.0647"
     id="path594" />
  <path
     style="fill:none;fill-opacity:1;stroke:#840000;stroke-width:0.254;stroke-linecap:round;stroke-linejoin:round;stroke-opacity:1"
     d="m 3.4787794,16.081979 v 3.81"
     id="path595" />
  <path
     style="fill:none;fill-opacity:1;stroke:#840000;stroke-width:0.254;stroke-linecap:round;stroke-linejoin:round;stroke-opacity:1"
     d="m 3.9867794,19.256979 v 1.016"
     id="path596" />
  <path
     style="fill:none;fill-opacity:1;stroke:#840000;stroke-width:0.254;stroke-linecap:round;stroke-linejoin:round;stroke-opacity:1"
     d="m 3.9867794,17.478979 v 1.016"
     id="path597" />
  <path
     style="fill:none;fill-opacity:1;stroke:#840000;stroke-width:0.254;stroke-linecap:round;stroke-linejoin:round;stroke-opacity:1"
     d="m 3.9867794,15.700979 v 1.016"
     id="path598" />
  <path
     style="fill:none;fill-opacity:1;stroke:#840000;stroke-width:0.1524;stroke-linecap:round;stroke-linejoin:round;stroke-opacity:1"
     d="m 5.7647794,14.684979 v 1.524"
     id="path599" />
  <path
     style="fill:none;fill-opacity:1;stroke:#840000;stroke-width:0.1524;stroke-linecap:round;stroke-linejoin:round;stroke-opacity:1"
     d="m 6.5267794,17.224979 h 1.524"
     id="path600" />
  <path
     style="fill:none;fill-opacity:1;stroke:#840000;stroke-width:0.1524;stroke-linecap:round;stroke-linejoin:round;stroke-opacity:1"
     d="m 5.7647794,21.288979 v -3.302 h -1.778"
     id="path601" />
  <path
     style="fill:none;fill-opacity:1;stroke:#840000;stroke-width:0.1524;stroke-linecap:round;stroke-linejoin:round;stroke-opacity:1"
     d="m 3.9867794,19.764979 h 3.302 v -3.556 h -3.302"
     id="path602" />
  <path
     style="fill:#840000;fill-opacity:1;fill-rule:evenodd;stroke:#840000;stroke-width:0.1524;stroke-linecap:round;stroke-linejoin:round;stroke-opacity:1"
     d="m 4.2407794,17.986979 1.016,-0.381 v 0.762 z"
     id="path603" />
  <path
     style="fill:none;fill-opacity:1;stroke:#840000;stroke-width:0.1524;stroke-linecap:round;stroke-linejoin:round;stroke-opacity:1"
     d="m 7.2887794,17.224979 -0.762,1.27 h 1.524 z"
     id="path604" />
  <g
     style="fill:#840000;fill-opacity:1;stroke:#840000;stroke-width:0.1524;stroke-linecap:round;stroke-linejoin:round;stroke-opacity:1"
     id="g605"
     transform="translate(-18.36522,-18.843021)">
    <circle
       cx="24.129999"
       cy="38.608002"
       r="0.25400001"
       id="circle604" />
    <circle
       cx="24.129999"
       cy="35.051998"
       r="0.25400001"
       id="circle605" />
  </g>
  <g
     style="fill:none;stroke:#840000;stroke-width:0.254;stroke-linecap:round;stroke-linejoin:round;stroke-opacity:1"
     id="g606"
     transform="translate(-18.36522,-18.843021)">
    <circle
       cx="23.925301"
       cy="36.859299"
       r="3.175"
       id="circle606" />
  </g>
  <g
     style="fill:none;stroke:#840000;stroke-width:0.1524;stroke-linecap:round;stroke-linejoin:round;stroke-opacity:1"
     id="g607"
     transform="translate(-18.36522,-18.843021)">
    <path
       d="M 24.13,34.29 V 31.75"
       id="path606" />
    <path
       d="m 24.13,39.37 v 2.54"
       id="path607" />
  </g>
  <g
     style="fill:none;stroke:#006464;stroke-width:0.1524;stroke-linecap:round;stroke-linejoin:round;stroke-opacity:1"
     id="g610"
     transform="translate(-18.36522,-18.843021)">
    <text
       x="26.920799"
       y="33.654999"
       textLength="2.5336001"
       font-size="1.6933px"
       lengthAdjust="spacingAndGlyphs"
       text-anchor="middle"
       opacity="0"
       stroke-opacity="0"
       id="text607">Q1</text>
    <g
       class="stroked-text"
       id="g609">
      <desc
         id="desc607">Q1</desc>
      <path
         style="fill:#006464;fill-opacity:1;fill-rule:evenodd;stroke:none"
         d="m 26.5003,32.2398 0.0671,0.009 0.0644,0.015 0.0615,0.0209 0.0588,0.027 0.0559,0.0329 0.0531,0.039 0.0504,0.0449 0.0459,0.0493 0.0398,0.0521 0.0337,0.0548 0.0276,0.0575 0.0214,0.0603 0.0153,0.0631 0.0092,0.0658 0.0031,0.0686 -0.0026,0.0626 -0.0092,0.0686 -0.0159,0.0655 -0.0227,0.0625 -0.0033,0.0076 -0.0305,0.0595 -0.0381,0.0577 -0.0394,0.049 -0.0452,0.0475 -0.014,0.0133 0.1902,0.2327 h -0.1579 l -0.1309,-0.1589 -0.0603,0.0338 -0.0631,0.0267 -0.0659,0.0198 -0.0688,0.0128 -0.0716,0.0058 -0.0245,4e-4 -0.0699,-0.003 -0.0671,-0.009 -0.0644,-0.0151 -0.0615,-0.0211 -0.0588,-0.027 -0.056,-0.0332 -0.0533,-0.0391 -0.0504,-0.0451 -0.0461,-0.0495 -0.0399,-0.0521 -0.0337,-0.0545 -0.0276,-0.0571 -0.0215,-0.0596 -0.0153,-0.0622 -0.0092,-0.0646 -0.0031,-0.0673 v -3e-4 h 0.1334 l 0.0038,0.0694 0.0116,0.0658 0.0193,0.0624 0.027,0.059 0.0346,0.0555 0.0424,0.0521 0.0192,0.0198 0.0509,0.0452 0.0542,0.0375 0.0573,0.0298 0.0606,0.0222 0.0638,0.0145 0.067,0.0069 0.0277,6e-4 0.0655,-0.0037 0.063,-0.0112 0.0606,-0.0185 0.058,-0.026 0.0321,-0.0182 -0.2863,-0.3592 h 0.156 l 0.2295,0.287 0.0483,-0.0521 0.0401,-0.0558 0.0319,-0.0596 0.0237,-0.0633 0.0155,-0.0671 0.0074,-0.0707 6e-4,-0.0294 -0.0034,-0.065 -0.0102,-0.0621 -0.0199,-0.0677 -0.0289,-0.064 -0.0086,-0.0154 -0.0392,-0.0582 -0.0464,-0.0521 -0.0538,-0.0459 -0.053,-0.0352 -0.008,-0.0046 -0.0571,-0.0288 -0.0585,-0.0217 -0.0684,-0.0162 -0.0702,-0.0069 -0.0178,-3e-4 -0.0622,0.0035 -0.0691,0.0127 -0.0671,0.0218 -0.057,0.0266 -0.016,0.0089 -0.0531,0.0346 -0.0542,0.0456 -0.0472,0.0522 -0.0355,0.051 -0.0092,0.0155 -0.0278,0.0561 -0.0209,0.0589 -0.0142,0.0616 -0.0073,0.0643 -0.0011,0.0379 H 25.756 l 0.0032,-0.0671 0.0094,-0.0657 0.0158,-0.0638 0.022,-0.062 0.0284,-0.0601 0.0108,-0.0197 0.0361,-0.0562 0.0405,-0.0514 0.0452,-0.0466 0.0496,-0.0417 0.0543,-0.037 0.0191,-0.0112 0.0592,-0.0298 0.0613,-0.0237 0.0634,-0.0175 0.0655,-0.0113 0.0676,-0.0051 0.023,-4e-4 z"
         id="path608" />
      <path
         style="fill:#006464;fill-opacity:1;fill-rule:evenodd;stroke:none"
         d="m 27.5331,32.2567 h 0.2522 v 1.2904 h -0.1275 v -1.1713 h -0.2017 z"
         id="path609" />
    </g>
  </g>
  <path
     style="fill:none;stroke:#840000;stroke-width:0.254;stroke-linecap:round;stroke-linejoin:round;stroke-opacity:1"
     d="m 32.18078,17.224979 h -2.032"
     id="path652" />
  <path
     style="fill:none;stroke:#840000;stroke-width:0.1524;stroke-linecap:round;stroke-linejoin:round;stroke-opacity:1"
     d="m 31.16478,17.224979 v 1.524"
     id="path653" />
  <path
     style="fill:none;stroke:#840000;stroke-width:0.254;stroke-linecap:round;stroke-linejoin:round;stroke-opacity:1"
     d="m 32.18078,18.748979 -1.016,-1.524 -1.016,1.524 z"
     id="path654" />
  <g
     style="fill:none;stroke:#840000;stroke-width:0.1524;stroke-linecap:round;stroke-linejoin:round;stroke-opacity:1"
     id="g656"
     transform="translate(-18.36522,-18.843021)">
    <path
       d="M 49.53,36.068 V 34.29"
       id="path655" />
    <path
       d="M 49.53,37.592 V 39.37"
       id="path656" />
  </g>
  <text
     x="47.868099"
     y="35.179001"
     textLength="2.3078001"
     font-size="1.6933px"
     lengthAdjust="spacingAndGlyphs"
     text-anchor="middle"
     opacity="0"
     stroke-opacity="0"
     id="text656"
     transform="translate(-18.36522,-18.843021)"
     style="fill:none;stroke:#006464;stroke-width:0.1524;stroke-linecap:round;stroke-linejoin:round">D1</text>
  <g
     class="stroked-text"
     id="g658"
     transform="translate(-18.36522,-18.843021)"
     style="fill:none;stroke:#006464;stroke-width:0.1524;stroke-linecap:round;stroke-linejoin:round;stroke-opacity:1">
    <desc
       id="desc656">D1</desc>
    <path
       style="fill:#006464;fill-opacity:1;fill-rule:evenodd;stroke:none"
       d="m 47.2058,33.7814 0.0646,0.0022 0.0737,0.0047 0.0661,0.0071 0.0691,0.0114 0.0666,0.0175 0.0082,0.0029 0.0672,0.028 0.0614,0.0349 0.0557,0.0416 0.05,0.0484 0.0442,0.0552 0.0134,0.0199 0.0358,0.063 0.0283,0.0674 0.018,0.0595 0.0128,0.0626 0.0077,0.0656 0.0026,0.0687 -0.003,0.0711 -0.0088,0.0678 -0.0146,0.0646 -0.0206,0.0613 -0.0264,0.0581 -0.0101,0.0186 -0.0387,0.0608 -0.0436,0.0533 -0.0483,0.046 -0.0531,0.0386 -0.0325,0.0187 -0.0633,0.0274 -0.0624,0.018 -0.07,0.0132 -0.0641,0.0072 -0.0692,0.0037 -0.0441,7e-4 h -0.4082 v -0.1192 h 0.1231 0.1483 l 0.064,-5e-4 0.0728,-0.0021 0.0648,-0.0038 0.0673,-0.0066 0.064,-0.0108 0.0362,-0.0097 0.0604,-0.0245 0.0545,-0.0319 0.0485,-0.0393 0.0426,-0.0465 0.0217,-0.0299 0.0323,-0.0571 0.0243,-0.0623 0.0164,-0.0677 0.0078,-0.0621 0.002,-0.0548 -0.0032,-0.0688 -0.0094,-0.0649 -0.0158,-0.061 -0.0265,-0.0663 -0.035,-0.061 -0.0427,-0.0544 -0.0494,-0.0465 -0.0562,-0.0383 -0.063,-0.0304 -0.0391,-0.0137 -0.0699,-0.0163 -0.0653,-0.0091 -0.0628,-0.0057 -0.0704,-0.0038 -0.0781,-0.002 -0.0505,-3e-4 h -0.0906 v 1.0521 h -0.1231 v -1.1712 h 0.2661 z"
       id="path657" />
    <path
       style="fill:#006464;fill-opacity:1;fill-rule:evenodd;stroke:none"
       d="m 48.3675,33.7807 h 0.2521 v 1.2904 h -0.1274 v -1.1713 h -0.2017 z"
       id="path658" />
  </g>
  <g
     style="fill:none;stroke:#840000;stroke-width:0.1524;stroke-linecap:round;stroke-linejoin:round;stroke-opacity:1"
     id="g684"
     transform="translate(-18.36522,-18.843021)">
    <path
       d="m 45.72,46.99 a 0.635,0.635 0 0 0 -1.27,0"
       id="path667" />
    <path
       d="m 44.45,46.99 a 0.635,0.635 0 0 0 -1.27,0"
       id="path668" />
    <path
       style="fill:none;stroke:#840000;stroke-width:0.1524;stroke-linecap:round;stroke-linejoin:round;stroke-opacity:1"
       d="M 45.974,45.974 H 45.466"
       id="path669" />
    <path
       style="fill:none;stroke:#840000;stroke-width:0.1524;stroke-linecap:round;stroke-linejoin:round;stroke-opacity:1"
       d="M 44.958,45.974 H 44.45"
       id="path670" />
    <path
       style="fill:none;stroke:#840000;stroke-width:0.1524;stroke-linecap:round;stroke-linejoin:round;stroke-opacity:1"
       d="M 43.942,45.974 H 43.434"
       id="path671" />
    <path
       style="fill:none;stroke:#840000;stroke-width:0.1524;stroke-linecap:round;stroke-linejoin:round;stroke-opacity:1"
       d="M 42.926,45.974 H 42.418"
       id="path672" />
    <path
       style="fill:none;stroke:#840000;stroke-width:0.1524;stroke-linecap:round;stroke-linejoin:round;stroke-opacity:1"
       d="M 41.91,45.974 H 41.402"
       id="path673" />
    <path
       style="fill:none;stroke:#840000;stroke-width:0.1524;stroke-linecap:round;stroke-linejoin:round;stroke-opacity:1"
       d="M 40.894,45.974 H 40.386"
       id="path674" />
    <path
       style="fill:none;stroke:#840000;stroke-width:0.1524;stroke-linecap:round;stroke-linejoin:round;stroke-opacity:1"
       d="m 45.466,45.466 h 0.508"
       id="path675" />
    <path
       style="fill:none;stroke:#840000;stroke-width:0.1524;stroke-linecap:round;stroke-linejoin:round;stroke-opacity:1"
       d="m 44.45,45.466 h 0.508"
       id="path676" />
    <path
       style="fill:none;stroke:#840000;stroke-width:0.1524;stroke-linecap:round;stroke-linejoin:round;stroke-opacity:1"
       d="m 43.434,45.466 h 0.508"
       id="path677" />
    <path
       style="fill:none;stroke:#840000;stroke-width:0.1524;stroke-linecap:round;stroke-linejoin:round;stroke-opacity:1"
       d="m 42.418,45.466 h 0.508"
       id="path678" />
    <path
       style="fill:none;stroke:#840000;stroke-width:0.1524;stroke-linecap:round;stroke-linejoin:round;stroke-opacity:1"
       d="M 41.402,45.466 H 41.91"
       id="path679" />
    <path
       style="fill:none;stroke:#840000;stroke-width:0.1524;stroke-linecap:round;stroke-linejoin:round;stroke-opacity:1"
       d="m 40.386,45.466 h 0.508"
       id="path680" />
    <path
       d="m 43.18,46.99 a 0.635,0.635 0 0 0 -1.27,0"
       id="path681" />
    <path
       d="m 41.91,46.99 a 0.635,0.635 0 0 0 -1.27,0"
       id="path682" />
    <path
       d="M 40.64,46.99 H 39.37"
       id="path683" />
    <path
       d="m 45.72,46.99 h 1.27"
       id="path684" />
  </g>
  <g
     style="fill:none;stroke:#006464;stroke-width:0.1524;stroke-linecap:round;stroke-linejoin:round;stroke-opacity:1"
     id="g687"
     transform="translate(-18.36522,-18.843021)">
    <text
       x="43.433899"
       y="44.322899"
       textLength="1.8065"
       font-size="1.6933px"
       lengthAdjust="spacingAndGlyphs"
       text-anchor="middle"
       opacity="0"
       stroke-opacity="0"
       id="text684">L1</text>
    <g
       class="stroked-text"
       id="g686">
      <desc
         id="desc684">L1</desc>
      <path
         style="fill:#006464;fill-opacity:1;fill-rule:evenodd;stroke:none"
         d="m 42.6867,42.9246 h 0.1293 v 1.1712 h 0.4929 v 0.1192 h -0.6222 z"
         id="path685" />
      <path
         style="fill:#006464;fill-opacity:1;fill-rule:evenodd;stroke:none"
         d="m 43.6827,42.9246 h 0.2522 v 1.2904 h -0.1275 v -1.1713 h -0.2016 z"
         id="path686" />
    </g>
  </g>
  <path
     style="fill:none;stroke:#840000;stroke-width:0.1524;stroke-linecap:round;stroke-linejoin:round;stroke-opacity:1"
     d="m 17.70278,6.556979 0.762,-1.27"
     id="path737" />
  <path
     style="fill:none;stroke:#840000;stroke-width:0.1524;stroke-linecap:round;stroke-linejoin:round;stroke-opacity:1"
     d="m 18.46478,7.826979 v -2.54"
     id="path738" />
  <path
     style="fill:none;stroke:#840000;stroke-width:0.1524;stroke-linecap:round;stroke-linejoin:round;stroke-opacity:1"
     d="m 18.46478,5.286979 0.762,1.27"
     id="path739" />
  <g
     style="fill:none;stroke:#840000;stroke-width:0.1524;stroke-linecap:round;stroke-linejoin:round;stroke-opacity:1"
     id="g740"
     transform="translate(-18.36522,-18.843021)">
    <path
       d="m 36.83,26.67 v 0"
       id="path740" />
  </g>
  <g
     style="fill:none;stroke:#006464;stroke-width:0.1524;stroke-linecap:round;stroke-linejoin:round;stroke-opacity:1"
     id="g745"
     transform="translate(-18.36522,-18.843021)">
    <text
       x="36.830002"
       y="22.225"
       textLength="4.2035999"
       font-size="1.6933px"
       lengthAdjust="spacingAndGlyphs"
       text-anchor="middle"
       opacity="0"
       stroke-opacity="0"
       id="text740">144V</text>
    <g
       class="stroked-text"
       id="g744">
      <desc
         id="desc740">144V</desc>
      <path
         style="fill:#006464;fill-opacity:1;fill-rule:evenodd;stroke:none"
         d="m 35.0588,20.8267 h 0.2522 v 1.2904 h -0.1275 v -1.1713 h -0.2016 z"
         id="path741" />
      <path
         style="fill:#006464;fill-opacity:1;fill-rule:evenodd;stroke:none"
         d="m 36.5003,21.7002 h 0.1554 v 0.1191 h -0.1554 v 0.2978 h -0.1285 v -0.2978 h -0.6132 l 0.0842,-0.1191 h 0.1515 0.3775 v -0.5339 l -0.3775,0.5339 h -0.1515 l 0.6314,-0.8934 h 0.0261 z"
         id="path742" />
      <path
         style="fill:#006464;fill-opacity:1;fill-rule:evenodd;stroke:none"
         d="m 37.4854,21.7002 h 0.1554 v 0.1191 h -0.1554 v 0.2978 H 37.357 v -0.2978 h -0.6132 l 0.0842,-0.1191 h 0.1515 0.3775 v -0.5339 l -0.3775,0.5339 H 36.828 l 0.6314,-0.8934 h 0.026 z"
         id="path743" />
      <path
         style="fill:#006464;fill-opacity:1;fill-rule:evenodd;stroke:none"
         d="m 37.7419,20.8267 h 0.1396 l 0.425,0.9988 0.4327,-0.9988 h 0.1396 l -0.5584,1.2904 h -0.0279 z"
         id="path744" />
    </g>
  </g>
  <path
     style="fill:none;stroke:#840000;stroke-width:0.1524;stroke-linecap:round;stroke-linejoin:round;stroke-opacity:1"
     d="m 47.67478,44.656979 v 1.27 h 1.27 l -1.27,1.27 -1.27,-1.27 h 1.27"
     id="path761" />
  <path
     style="fill:none;fill-opacity:1;stroke:#840000;stroke-width:0.1524;stroke-linecap:round;stroke-linejoin:round;stroke-opacity:1"
     d="m 28.87878,37.036979 h -1.0647"
     id="path762" />
  <path
     style="fill:none;fill-opacity:1;stroke:#840000;stroke-width:0.254;stroke-linecap:round;stroke-linejoin:round;stroke-opacity:1"
     d="m 28.87878,35.131979 v 3.81"
     id="path763" />
  <path
     style="fill:none;fill-opacity:1;stroke:#840000;stroke-width:0.254;stroke-linecap:round;stroke-linejoin:round;stroke-opacity:1"
     d="m 29.38678,38.306979 v 1.016"
     id="path764" />
  <path
     style="fill:none;fill-opacity:1;stroke:#840000;stroke-width:0.254;stroke-linecap:round;stroke-linejoin:round;stroke-opacity:1"
     d="m 29.38678,36.528979 v 1.016"
     id="path765" />
  <path
     style="fill:none;fill-opacity:1;stroke:#840000;stroke-width:0.254;stroke-linecap:round;stroke-linejoin:round;stroke-opacity:1"
     d="m 29.38678,34.750979 v 1.016"
     id="path766" />
  <path
     style="fill:none;fill-opacity:1;stroke:#840000;stroke-width:0.1524;stroke-linecap:round;stroke-linejoin:round;stroke-opacity:1"
     d="m 31.16478,33.734979 v 1.524"
     id="path767" />
  <path
     style="fill:none;fill-opacity:1;stroke:#840000;stroke-width:0.1524;stroke-linecap:round;stroke-linejoin:round;stroke-opacity:1"
     d="m 31.92678,36.274979 h 1.524"
     id="path768" />
  <path
     style="fill:none;fill-opacity:1;stroke:#840000;stroke-width:0.1524;stroke-linecap:round;stroke-linejoin:round;stroke-opacity:1"
     d="m 31.16478,40.338979 v -3.302 h -1.778"
     id="path769" />
  <path
     style="fill:none;fill-opacity:1;stroke:#840000;stroke-width:0.1524;stroke-linecap:round;stroke-linejoin:round;stroke-opacity:1"
     d="m 29.38678,38.814979 h 3.302 v -3.556 h -3.302"
     id="path770" />
  <path
     style="fill:#840000;fill-opacity:1;fill-rule:evenodd;stroke:#840000;stroke-width:0.1524;stroke-linecap:round;stroke-linejoin:round;stroke-opacity:1"
     d="m 29.64078,37.036979 1.016,-0.381 v 0.762 z"
     id="path771" />
  <path
     style="fill:none;fill-opacity:1;stroke:#840000;stroke-width:0.1524;stroke-linecap:round;stroke-linejoin:round;stroke-opacity:1"
     d="m 32.68878,36.274979 -0.762,1.27 h 1.524 z"
     id="path772" />
  <g
     style="fill:#840000;fill-opacity:1;stroke:#840000;stroke-width:0.1524;stroke-linecap:round;stroke-linejoin:round;stroke-opacity:1"
     id="g773"
     transform="translate(-18.36522,-18.843021)">
    <circle
       cx="49.529999"
       cy="57.658001"
       r="0.25400001"
       id="circle772" />
    <circle
       cx="49.529999"
       cy="54.102001"
       r="0.25400001"
       id="circle773" />
  </g>
  <g
     style="fill:none;stroke:#840000;stroke-width:0.254;stroke-linecap:round;stroke-linejoin:round;stroke-opacity:1"
     id="g774"
     transform="translate(-18.36522,-18.843021)">
    <circle
       cx="49.325298"
       cy="55.909302"
       r="3.175"
       id="circle774" />
  </g>
  <g
     style="fill:none;stroke:#840000;stroke-width:0.1524;stroke-linecap:round;stroke-linejoin:round;stroke-opacity:1"
     id="g775"
     transform="translate(-18.36522,-18.843021)">
    <path
       d="M 49.53,53.34 V 50.8"
       id="path774" />
    <path
       d="m 49.53,58.42 v 2.54"
       id="path775" />
  </g>
  <g
     style="fill:none;stroke:#006464;stroke-width:0.1524;stroke-linecap:round;stroke-linejoin:round;stroke-opacity:1"
     id="g778"
     transform="translate(-18.36522,-18.843021)">
    <text
       x="52.320801"
       y="52.705002"
       textLength="2.5336001"
       font-size="1.6933px"
       lengthAdjust="spacingAndGlyphs"
       text-anchor="middle"
       opacity="0"
       stroke-opacity="0"
       id="text775">Q2</text>
    <g
       class="stroked-text"
       id="g777">
      <desc
         id="desc775">Q2</desc>
      <path
         style="fill:#006464;fill-opacity:1;fill-rule:evenodd;stroke:none"
         d="m 51.9003,51.2898 0.0671,0.009 0.0644,0.015 0.0615,0.0209 0.0588,0.027 0.0559,0.0329 0.0531,0.039 0.0504,0.0449 0.0459,0.0493 0.0398,0.0521 0.0337,0.0548 0.0276,0.0575 0.0214,0.0603 0.0153,0.0631 0.0092,0.0658 0.0031,0.0686 -0.0026,0.0626 -0.0092,0.0686 -0.0159,0.0655 -0.0227,0.0625 -0.0033,0.0076 -0.0305,0.0595 -0.0381,0.0577 -0.0394,0.049 -0.0452,0.0475 -0.014,0.0133 0.1902,0.2327 h -0.1579 l -0.1309,-0.1589 -0.0603,0.0338 -0.0631,0.0267 -0.0659,0.0198 -0.0688,0.0128 -0.0716,0.0058 -0.0245,4e-4 -0.0699,-0.003 -0.0671,-0.009 -0.0644,-0.0151 -0.0615,-0.0211 -0.0588,-0.027 -0.056,-0.0332 -0.0533,-0.0391 -0.0504,-0.0451 -0.0461,-0.0495 -0.0399,-0.0521 -0.0337,-0.0545 -0.0276,-0.0571 -0.0215,-0.0596 -0.0153,-0.0622 -0.0092,-0.0646 -0.0031,-0.0673 v -3e-4 h 0.1334 l 0.0038,0.0694 0.0116,0.0658 0.0193,0.0624 0.027,0.059 0.0346,0.0555 0.0424,0.0521 0.0192,0.0198 0.0509,0.0452 0.0542,0.0375 0.0573,0.0298 0.0606,0.0222 0.0638,0.0145 0.067,0.0069 0.0277,6e-4 0.0655,-0.0037 0.063,-0.0112 0.0606,-0.0185 0.058,-0.026 0.0321,-0.0182 -0.2863,-0.3592 h 0.156 l 0.2295,0.287 0.0483,-0.0521 0.0401,-0.0558 0.0319,-0.0596 0.0237,-0.0633 0.0155,-0.0671 0.0074,-0.0707 6e-4,-0.0294 -0.0034,-0.065 -0.0102,-0.0621 -0.0199,-0.0677 -0.0289,-0.064 -0.0086,-0.0154 -0.0392,-0.0582 -0.0464,-0.0521 -0.0538,-0.0459 -0.053,-0.0352 -0.008,-0.0046 -0.0571,-0.0288 -0.0585,-0.0217 -0.0684,-0.0162 -0.0702,-0.0069 -0.0178,-3e-4 -0.0622,0.0035 -0.0691,0.0127 -0.0671,0.0218 -0.057,0.0266 -0.016,0.0089 -0.0531,0.0346 -0.0542,0.0456 -0.0472,0.0522 -0.0355,0.051 -0.0092,0.0155 -0.0278,0.0561 -0.0209,0.0589 -0.0142,0.0616 -0.0073,0.0643 -0.0011,0.0379 H 51.156 l 0.0032,-0.0671 0.0094,-0.0657 0.0158,-0.0638 0.022,-0.062 0.0284,-0.0601 0.0108,-0.0197 0.0361,-0.0562 0.0405,-0.0514 0.0452,-0.0466 0.0496,-0.0417 0.0543,-0.037 0.0191,-0.0112 0.0592,-0.0298 0.0613,-0.0237 0.0634,-0.0175 0.0655,-0.0113 0.0676,-0.0051 0.023,-4e-4 z"
         id="path776" />
      <path
         style="fill:#006464;fill-opacity:1;fill-rule:evenodd;stroke:none"
         d="m 52.8093,51.7037 h -0.1231 l 0.006,-0.0661 0.0143,-0.0615 0.0269,-0.066 0.0381,-0.0598 0.0415,-0.0462 0.0477,-0.0399 0.0607,-0.0361 0.0662,-0.0248 0.061,-0.0124 0.065,-0.0041 0.064,0.004 0.0687,0.0149 0.0623,0.0258 0.0557,0.0368 0.0359,0.033 0.0427,0.0519 0.0322,0.0559 0.0217,0.0598 0.0112,0.0637 0.0017,0.0382 -0.0051,0.0668 -0.0154,0.0641 -0.0256,0.0615 -0.0063,0.012 -0.0372,0.0591 -0.0397,0.0534 -0.0415,0.0509 -0.0486,0.0556 -0.0362,0.0397 -0.3192,0.344 h 0.5922 v 0.1192 h -0.8713 l 0.4901,-0.5258 0.044,-0.048 0.0462,-0.0523 0.0446,-0.0536 0.0388,-0.0515 0.0205,-0.0319 0.0274,-0.0593 0.0148,-0.0616 0.0028,-0.0423 -0.0079,-0.0647 -0.0236,-0.0588 -0.0394,-0.053 -0.0097,-0.0099 -0.054,-0.0414 -0.061,-0.026 -0.0681,-0.0108 -0.0145,-3e-4 -0.066,0.0062 -0.0594,0.0186 -0.0583,0.0351 -0.021,0.0183 -0.0402,0.049 -0.0292,0.059 -0.0166,0.0608 z"
         id="path777" />
    </g>
    <path
       style="fill:none;stroke:#840000;stroke-width:0.1524;stroke-linecap:round;stroke-linejoin:round;stroke-opacity:1"
       d="m 49.53,63.5 v 1.27 h 1.27 l -1.27,1.27 -1.27,-1.27 h 1.27"
       id="path778" />
  </g>
  <g
     style="fill:none;stroke:#840000;stroke-width:0.254;stroke-linecap:round;stroke-linejoin:round;stroke-opacity:1"
     id="g793"
     transform="translate(-18.36522,-18.843021)">
    <circle
       cx="66.040001"
       cy="55.880001"
       r="2.54"
       id="circle792" />
  </g>
  <g
     style="fill:none;stroke:#840000;stroke-width:0.375;stroke-linecap:round;stroke-linejoin:round;stroke-opacity:1"
     id="g796"
     transform="translate(-18.36522,-18.843021)">
    <g
       transform="rotate(-90,66.0401,55.88)"
       id="g794">
      <text
         x="66.0401"
         y="57.380001"
         textLength="3.1066999"
         font-size="4px"
         lengthAdjust="spacingAndGlyphs"
         text-anchor="middle"
         opacity="0"
         stroke-opacity="0"
         id="text793">A</text>
    </g>
    <g
       class="stroked-text"
       id="g795">
      <desc
         id="desc794">A</desc>
      <path
         style="fill:#840000;fill-opacity:1;fill-rule:evenodd;stroke:none"
         d="m 67.2851,54.7375 -1.0317,0.4763 v 1.3065 l 1.0317,0.474 v 0.3378 L 64.2369,55.8996 V 55.863 h 0.6309 l 1.1042,0.521 v -1.0361 l -1.1042,0.5151 h -0.6309 v -0.0374 l 3.0482,-1.4134 z"
         id="path794" />
    </g>
  </g>
  <g
     style="fill:none;stroke:#840000;stroke-width:0.1524;stroke-linecap:round;stroke-linejoin:round;stroke-opacity:1"
     id="g797"
     transform="translate(-18.36522,-18.843021)">
    <path
       d="M 66.04,53.34 V 52.07"
       id="path796" />
    <path
       d="m 66.04,58.42 v 1.27"
       id="path797" />
  </g>
  <path
     d="m 31.16478,42.116979 v 2.54"
     id="path1054"
     style="fill:none;stroke:#009600;stroke-width:0.1524;stroke-linecap:round;stroke-linejoin:round;stroke-opacity:1" />
  <path
     d="m 28.62478,28.146979 h 2.54"
     id="path1057"
     style="fill:none;stroke:#009600;stroke-width:0.1524;stroke-linecap:round;stroke-linejoin:round;stroke-opacity:1" />
  <path
     d="m 15.92478,28.146979 h 5.08"
     id="path1062"
     style="fill:none;stroke:#009600;stroke-width:0.1524;stroke-linecap:round;stroke-linejoin:round;stroke-opacity:1" />
  <path
     d="m 31.16478,28.146979 v 3.81"
     id="path1063"
     style="fill:none;stroke:#009600;stroke-width:0.1524;stroke-linecap:round;stroke-linejoin:round;stroke-opacity:1" />
  <path
     d="m 5.7647794,23.066979 v 5.08"
     id="path1064"
     style="fill:none;stroke:#009600;stroke-width:0.1524;stroke-linecap:round;stroke-linejoin:round;stroke-opacity:1" />
  <path
     d="M 5.7647794,9.0969794 H 18.46478"
     id="path1067"
     style="fill:none;stroke:#009600;stroke-width:0.1524;stroke-linecap:round;stroke-linejoin:round;stroke-opacity:1" />
  <path
     d="M 5.7647794,12.906979 V 9.0969794"
     id="path1068"
     style="fill:none;stroke:#009600;stroke-width:0.1524;stroke-linecap:round;stroke-linejoin:round;stroke-opacity:1" />
  <path
     d="m 5.7647794,39.576979 v 5.08"
     id="path1069"
     style="fill:none;stroke:#009600;stroke-width:0.1524;stroke-linecap:round;stroke-linejoin:round;stroke-opacity:1" />
  <path
     d="m 5.7647794,28.146979 v 6.35"
     id="path1070"
     style="fill:none;stroke:#009600;stroke-width:0.1524;stroke-linecap:round;stroke-linejoin:round;stroke-opacity:1" />
  <path
     d="m 47.67478,30.686979 v 2.54"
     id="path1076"
     style="fill:none;stroke:#009600;stroke-width:0.1524;stroke-linecap:round;stroke-linejoin:round;stroke-opacity:1" />
  <path
     d="m 47.67478,30.686979 h 2.54"
     id="path1092"
     style="fill:none;stroke:#009600;stroke-width:0.1524;stroke-linecap:round;stroke-linejoin:round;stroke-opacity:1" />
  <path
     d="m 5.7647794,28.146979 h 2.54"
     id="path1101"
     style="fill:none;stroke:#009600;stroke-width:0.1524;stroke-linecap:round;stroke-linejoin:round;stroke-opacity:1" />
  <path
     d="M 31.16478,9.0969794 V 15.446979"
     id="path1106"
     style="fill:none;stroke:#009600;stroke-width:0.1524;stroke-linecap:round;stroke-linejoin:round;stroke-opacity:1" />
  <path
     d="m 18.46478,9.0969794 h 12.7"
     id="path1107"
     style="fill:none;stroke:#009600;stroke-width:0.1524;stroke-linecap:round;stroke-linejoin:round;stroke-opacity:1" />
  <path
     d="m 31.16478,28.146979 h 19.05"
     id="path1115"
     style="fill:none;stroke:#009600;stroke-width:0.1524;stroke-linecap:round;stroke-linejoin:round;stroke-opacity:1" />
  <path
     d="m 47.67478,40.846979 v 3.81"
     id="path1116"
     style="fill:none;stroke:#009600;stroke-width:0.1524;stroke-linecap:round;stroke-linejoin:round;stroke-opacity:1" />
  <path
     d="m 18.46478,7.8269794 v 1.27"
     id="path1117"
     style="fill:none;stroke:#009600;stroke-width:0.1524;stroke-linecap:round;stroke-linejoin:round;stroke-opacity:1" />
  <path
     d="m 31.16478,20.526979 v 7.62"
     id="path1134"
     style="fill:none;stroke:#009600;stroke-width:0.1524;stroke-linecap:round;stroke-linejoin:round;stroke-opacity:1" />
  <g
     style="fill:none;stroke:#006464;stroke-width:0.1524;stroke-linecap:round;stroke-linejoin:round;stroke-opacity:1"
     id="g1190"
     transform="translate(-18.36522,-18.843021)">
    <text
       x="30.6136"
       y="43.053001"
       textLength="3.3152001"
       font-size="1.6933px"
       lengthAdjust="spacingAndGlyphs"
       text-anchor="middle"
       opacity="0"
       stroke-opacity="0"
       id="text1186">CS1</text>
    <g
       class="stroked-text"
       id="g1189">
      <desc
         id="desc1186">CS1</desc>
      <path
         style="fill:#006464;fill-opacity:1;fill-rule:evenodd;stroke:none"
         d="m 30.3074,41.8948 -0.1014,0.0775 -0.044,-0.0504 -0.0482,-0.044 -0.0524,-0.0375 -0.0567,-0.0309 -0.0601,-0.0243 -0.0629,-0.0174 -0.0658,-0.0104 -0.0687,-0.0035 -0.0661,0.0035 -0.0639,0.0105 -0.0617,0.0176 -0.0596,0.0245 -0.0331,0.0171 -0.0545,0.0345 -0.0488,0.0392 -0.0488,0.0507 -0.0415,0.0571 -0.0093,0.0152 -0.028,0.0554 -0.0212,0.0583 -0.0142,0.0613 -0.0074,0.0642 -0.0011,0.0381 0.0039,0.0709 0.0118,0.0672 0.0196,0.0634 0.0276,0.0596 0.0353,0.0559 0.0433,0.0522 0.0195,0.0198 0.0523,0.0448 0.0565,0.0373 0.0606,0.0296 0.0646,0.0221 0.0688,0.0144 0.0729,0.0069 0.0303,6e-4 0.066,-0.0034 0.0633,-0.0103 0.0605,-0.017 0.0577,-0.0239 0.055,-0.0307 0.0523,-0.0375 0.0495,-0.0444 0.0467,-0.0512 0.1014,0.0769 -0.0442,0.0518 -0.0488,0.0463 -0.0533,0.041 -0.058,0.0356 -0.0351,0.018 -0.0645,0.0264 -0.0676,0.02 -0.0708,0.0135 -0.0633,0.0063 -0.0546,0.0017 -0.082,-0.0035 -0.0775,-0.0103 -0.0731,-0.0173 -0.0686,-0.0242 -0.0642,-0.0311 -0.0598,-0.038 -0.0553,-0.0449 -0.0508,-0.0519 -0.047,-0.0603 -0.0391,-0.0641 -0.031,-0.0679 -0.0231,-0.0716 -0.0152,-0.0755 -0.0063,-0.063 -0.0015,-0.0489 0.0031,-0.0681 0.0093,-0.0653 0.0154,-0.0626 0.0216,-0.0599 0.0278,-0.0571 0.034,-0.0543 0.0401,-0.0516 0.0463,-0.0489 0.051,-0.0444 0.0541,-0.0386 0.0572,-0.0326 0.0603,-0.0267 0.0634,-0.0208 0.0666,-0.0148 0.0697,-0.0089 0.0728,-0.003 0.0662,0.0024 0.0638,0.0073 0.0613,0.012 0.0684,0.0202 0.065,0.0267 0.0609,0.0324 0.0559,0.0378 0.0508,0.043 0.0458,0.0482 z"
         id="path1187" />
      <path
         style="fill:#006464;fill-opacity:1;fill-rule:evenodd;stroke:none"
         d="m 30.425,42.6929 0.1092,-0.0655 0.0368,0.0629 0.0386,0.0523 0.0486,0.0486 0.0598,0.0373 0.0633,0.0164 0.0187,9e-4 0.0626,-0.0075 0.0587,-0.0226 0.0526,-0.038 0.0336,-0.043 0.0241,-0.0591 0.0057,-0.0485 -0.0109,-0.0641 -0.0301,-0.0589 -0.0027,-0.0039 -0.0417,-0.0509 -0.0503,-0.0498 -0.0541,-0.0472 -0.054,-0.0431 -0.0195,-0.0149 -0.0559,-0.0431 -0.0545,-0.0444 -0.048,-0.0427 -0.0414,-0.0451 -0.0358,-0.0566 -0.0226,-0.0595 -0.0093,-0.0622 -2e-4,-0.0128 0.0066,-0.0638 0.0198,-0.0591 0.0136,-0.0256 0.0381,-0.05 0.0487,-0.0404 0.0261,-0.0154 0.0613,-0.0251 0.0655,-0.0123 0.0317,-0.0014 0.0663,0.006 0.0629,0.0179 0.0402,0.0186 0.0554,0.0377 0.047,0.0433 0.0429,0.048 0.0219,0.0273 -0.1046,0.0791 -0.039,-0.0493 -0.0431,-0.0461 -0.0413,-0.0324 -0.0605,-0.025 -0.0509,-0.006 -0.0624,0.0091 -0.055,0.0296 -0.0095,0.0085 -0.0369,0.0526 -0.0124,0.0634 0.0098,0.0614 0.0076,0.0199 0.0355,0.0546 0.0284,0.031 0.0489,0.0404 0.0537,0.041 0.0544,0.0406 0.0086,0.0064 0.0496,0.0375 0.0527,0.0434 0.0522,0.0481 0.0421,0.0457 0.032,0.043 0.0328,0.0596 0.0206,0.0598 0.0086,0.066 10e-5,0.006 -0.0067,0.0671 -0.0198,0.0625 -0.0332,0.058 -0.0464,0.0534 -0.0486,0.0399 -0.0609,0.0336 -0.0666,0.0208 -0.0629,0.0077 -0.0188,4e-4 L 30.7484,42.96 30.6877,42.9452 30.6305,42.9205 30.6003,42.9026 30.548,42.8606 30.5035,42.8122 30.4661,42.7611 30.43,42.702 Z"
         id="path1188" />
      <path
         style="fill:#006464;fill-opacity:1;fill-rule:evenodd;stroke:none"
         d="m 31.6167,41.6547 h 0.2522 v 1.2904 h -0.1275 v -1.1713 h -0.2016 z"
         id="path1189" />
    </g>
  </g>
  <g
     style="fill:none;stroke:#840000;stroke-width:0.1524;stroke-linecap:round;stroke-linejoin:round;stroke-opacity:1"
     id="g1191"
     transform="translate(-18.36522,-18.843021)">
    <path
       d="m 33.02,46.99 h 1.27"
       id="path1190" />
    <path
       d="M 27.94,46.99 H 26.67"
       id="path1191" />
  </g>
  <g
     style="fill:none;stroke:#006464;stroke-width:0.1524;stroke-linecap:round;stroke-linejoin:round;stroke-opacity:1"
     id="g1194"
     transform="translate(-18.36522,-18.843021)">
    <text
       x="26.920799"
       y="33.654999"
       textLength="2.5336001"
       font-size="1.6933px"
       lengthAdjust="spacingAndGlyphs"
       text-anchor="middle"
       opacity="0"
       stroke-opacity="0"
       id="text1191">Q1</text>
    <g
       class="stroked-text"
       id="g1193">
      <desc
         id="desc1191">Q1</desc>
      <path
         style="fill:#006464;fill-opacity:1;fill-rule:evenodd;stroke:none"
         d="m 26.5003,32.2398 0.0671,0.009 0.0644,0.015 0.0615,0.0209 0.0588,0.027 0.0559,0.0329 0.0531,0.039 0.0504,0.0449 0.0459,0.0493 0.0398,0.0521 0.0337,0.0548 0.0276,0.0575 0.0214,0.0603 0.0153,0.0631 0.0092,0.0658 0.0031,0.0686 -0.0026,0.0626 -0.0092,0.0686 -0.0159,0.0655 -0.0227,0.0625 -0.0033,0.0076 -0.0305,0.0595 -0.0381,0.0577 -0.0394,0.049 -0.0452,0.0475 -0.014,0.0133 0.1902,0.2327 h -0.1579 l -0.1309,-0.1589 -0.0603,0.0338 -0.0631,0.0267 -0.0659,0.0198 -0.0688,0.0128 -0.0716,0.0058 -0.0245,4e-4 -0.0699,-0.003 -0.0671,-0.009 -0.0644,-0.0151 -0.0615,-0.0211 -0.0588,-0.027 -0.056,-0.0332 -0.0533,-0.0391 -0.0504,-0.0451 -0.0461,-0.0495 -0.0399,-0.0521 -0.0337,-0.0545 -0.0276,-0.0571 -0.0215,-0.0596 -0.0153,-0.0622 -0.0092,-0.0646 -0.0031,-0.0673 v -3e-4 h 0.1334 l 0.0038,0.0694 0.0116,0.0658 0.0193,0.0624 0.027,0.059 0.0346,0.0555 0.0424,0.0521 0.0192,0.0198 0.0509,0.0452 0.0542,0.0375 0.0573,0.0298 0.0606,0.0222 0.0638,0.0145 0.067,0.0069 0.0277,6e-4 0.0655,-0.0037 0.063,-0.0112 0.0606,-0.0185 0.058,-0.026 0.0321,-0.0182 -0.2863,-0.3592 h 0.156 l 0.2295,0.287 0.0483,-0.0521 0.0401,-0.0558 0.0319,-0.0596 0.0237,-0.0633 0.0155,-0.0671 0.0074,-0.0707 6e-4,-0.0294 -0.0034,-0.065 -0.0102,-0.0621 -0.0199,-0.0677 -0.0289,-0.064 -0.0086,-0.0154 -0.0392,-0.0582 -0.0464,-0.0521 -0.0538,-0.0459 -0.053,-0.0352 -0.008,-0.0046 -0.0571,-0.0288 -0.0585,-0.0217 -0.0684,-0.0162 -0.0702,-0.0069 -0.0178,-3e-4 -0.0622,0.0035 -0.0691,0.0127 -0.0671,0.0218 -0.057,0.0266 -0.016,0.0089 -0.0531,0.0346 -0.0542,0.0456 -0.0472,0.0522 -0.0355,0.051 -0.0092,0.0155 -0.0278,0.0561 -0.0209,0.0589 -0.0142,0.0616 -0.0073,0.0643 -0.0011,0.0379 H 25.756 l 0.0032,-0.0671 0.0094,-0.0657 0.0158,-0.0638 0.022,-0.062 0.0284,-0.0601 0.0108,-0.0197 0.0361,-0.0562 0.0405,-0.0514 0.0452,-0.0466 0.0496,-0.0417 0.0543,-0.037 0.0191,-0.0112 0.0592,-0.0298 0.0613,-0.0237 0.0634,-0.0175 0.0655,-0.0113 0.0676,-0.0051 0.023,-4e-4 z"
         id="path1192" />
      <path
         style="fill:#006464;fill-opacity:1;fill-rule:evenodd;stroke:none"
         d="m 27.5331,32.2567 h 0.2522 v 1.2904 h -0.1275 v -1.1713 h -0.2017 z"
         id="path1193" />
    </g>
  </g>
  <g
     style="fill:none;stroke:#840000;stroke-width:0.1524;stroke-linecap:round;stroke-linejoin:round;stroke-opacity:1"
     id="g1195"
     transform="translate(-18.36522,-18.843021)">
    <path
       d="M 24.13,34.29 V 31.75"
       id="path1194" />
    <path
       d="m 24.13,39.37 v 2.54"
       id="path1195" />
  </g>
  <g
     style="fill:none;stroke:#006464;stroke-width:0.1524;stroke-linecap:round;stroke-linejoin:round;stroke-opacity:1"
     id="g1199"
     transform="translate(-18.36522,-18.843021)">
    <text
       x="62.096401"
       y="52.9589"
       textLength="3.3152001"
       font-size="1.6933px"
       lengthAdjust="spacingAndGlyphs"
       text-anchor="middle"
       opacity="0"
       stroke-opacity="0"
       id="text1195">CS2</text>
    <g
       class="stroked-text"
       id="g1198">
      <desc
         id="desc1195">CS2</desc>
      <path
         style="fill:#006464;fill-opacity:1;fill-rule:evenodd;stroke:none"
         d="m 61.7902,51.8007 -0.1014,0.0775 -0.044,-0.0504 -0.0482,-0.044 -0.0524,-0.0375 -0.0567,-0.0309 -0.0601,-0.0243 -0.0629,-0.0174 -0.0658,-0.0104 -0.0687,-0.0035 -0.0661,0.0035 -0.0639,0.0105 -0.0617,0.0176 -0.0596,0.0245 -0.0331,0.0171 -0.0545,0.0345 -0.0488,0.0392 -0.0488,0.0507 -0.0415,0.0571 -0.0093,0.0152 -0.028,0.0554 -0.0212,0.0583 -0.0142,0.0613 -0.0074,0.0642 -0.0011,0.0381 0.0039,0.0709 0.0118,0.0672 0.0196,0.0634 0.0276,0.0596 0.0353,0.0559 0.0433,0.0522 0.0195,0.0198 0.0523,0.0448 0.0565,0.0373 0.0606,0.0296 0.0646,0.0221 0.0688,0.0144 0.0729,0.0069 0.0303,6e-4 0.066,-0.0034 0.0633,-0.0103 0.0605,-0.017 0.0577,-0.0239 0.055,-0.0307 0.0523,-0.0375 0.0495,-0.0444 0.0467,-0.0512 0.1014,0.0769 -0.0442,0.0518 -0.0488,0.0463 -0.0533,0.041 -0.058,0.0356 -0.0351,0.018 -0.0645,0.0264 -0.0676,0.02 -0.0708,0.0135 -0.0633,0.0063 -0.0546,0.0017 -0.082,-0.0035 -0.0775,-0.0103 -0.0731,-0.0173 -0.0686,-0.0242 -0.0642,-0.0311 -0.0598,-0.038 -0.0553,-0.0449 -0.0508,-0.0519 -0.047,-0.0603 -0.0391,-0.0641 -0.031,-0.0679 -0.0231,-0.0716 -0.0152,-0.0755 -0.0063,-0.063 -0.0015,-0.0489 0.0031,-0.0681 0.0093,-0.0653 0.0154,-0.0626 0.0216,-0.0599 0.0278,-0.0571 0.034,-0.0543 0.0401,-0.0516 0.0463,-0.0489 0.051,-0.0444 0.0541,-0.0386 0.0572,-0.0326 0.0603,-0.0267 0.0634,-0.0208 0.0666,-0.0148 0.0697,-0.0089 0.0728,-0.003 0.0662,0.0024 0.0638,0.0073 0.0613,0.012 0.0684,0.0202 0.065,0.0267 0.0609,0.0324 0.0559,0.0378 0.0508,0.043 0.0458,0.0482 z"
         id="path1196" />
      <path
         style="fill:#006464;fill-opacity:1;fill-rule:evenodd;stroke:none"
         d="m 61.9078,52.5988 0.1092,-0.0655 0.0368,0.0629 0.0386,0.0523 0.0486,0.0486 0.0598,0.0373 0.0633,0.0164 0.0187,9e-4 0.0626,-0.0075 0.0587,-0.0226 0.0526,-0.038 0.0336,-0.043 0.0241,-0.0591 0.0057,-0.0485 -0.0109,-0.0641 -0.0301,-0.0589 -0.0027,-0.0039 -0.0417,-0.0509 -0.0503,-0.0498 -0.0541,-0.0472 -0.054,-0.0431 -0.0195,-0.0149 -0.0559,-0.0431 -0.0545,-0.0444 -0.048,-0.0427 -0.0414,-0.0451 -0.0358,-0.0566 -0.0226,-0.0595 -0.0093,-0.0622 -2e-4,-0.0128 0.0066,-0.0638 0.0198,-0.0591 0.0136,-0.0256 0.0381,-0.05 0.0487,-0.0404 0.0261,-0.0154 0.0613,-0.0251 0.0655,-0.0123 0.0317,-0.0014 0.0663,0.006 0.0629,0.0179 0.0402,0.0186 0.0554,0.0377 0.047,0.0433 0.0429,0.048 0.0219,0.0273 -0.1046,0.0791 -0.039,-0.0493 -0.0431,-0.0461 -0.0413,-0.0324 -0.0605,-0.025 -0.0509,-0.006 -0.0624,0.0091 -0.055,0.0296 -0.0095,0.0085 -0.0369,0.0526 -0.0124,0.0634 0.0098,0.0614 0.0076,0.0199 0.0355,0.0546 0.0284,0.031 0.0489,0.0404 0.0537,0.041 0.0544,0.0406 0.0086,0.0064 0.0496,0.0375 0.0527,0.0434 0.0522,0.0481 0.0421,0.0457 0.032,0.043 0.0328,0.0596 0.0206,0.0598 0.0086,0.066 1e-4,0.006 -0.0067,0.0671 -0.0198,0.0625 -0.0332,0.058 -0.0464,0.0534 -0.0486,0.0399 -0.0609,0.0336 -0.0666,0.0208 -0.0629,0.0077 -0.0188,4e-4 -0.064,-0.0049 -0.0607,-0.0148 -0.0572,-0.0247 -0.0302,-0.0179 -0.0523,-0.042 -0.0445,-0.0484 -0.0374,-0.0511 -0.0361,-0.0591 z"
         id="path1197" />
      <path
         style="fill:#006464;fill-opacity:1;fill-rule:evenodd;stroke:none"
         d="m 62.9758,51.9576 h -0.1232 l 0.0061,-0.0661 0.0142,-0.0615 0.027,-0.066 0.0381,-0.0598 0.0415,-0.0462 0.0477,-0.0399 0.0607,-0.0361 0.0662,-0.0248 0.061,-0.0124 0.065,-0.0041 0.064,0.004 0.0687,0.0149 0.0623,0.0258 0.0557,0.0368 0.0359,0.033 0.0427,0.0519 0.0321,0.0559 0.0217,0.0598 0.0113,0.0637 0.0017,0.0382 -0.0051,0.0668 -0.0154,0.0641 -0.0256,0.0615 -0.0063,0.012 -0.0372,0.0591 -0.0397,0.0534 -0.0416,0.0509 -0.0485,0.0556 -0.0362,0.0397 -0.3192,0.344 h 0.5922 v 0.1192 h -0.8714 l 0.4901,-0.5258 0.0441,-0.048 0.0462,-0.0523 0.0446,-0.0536 0.0388,-0.0515 0.0205,-0.0319 0.0274,-0.0593 0.0148,-0.0616 0.0028,-0.0423 -0.0079,-0.0647 -0.0236,-0.0588 -0.0394,-0.053 -0.0098,-0.0099 -0.0539,-0.0414 -0.061,-0.026 -0.0682,-0.0108 -0.0144,-3e-4 -0.066,0.0062 -0.0594,0.0186 -0.0583,0.0351 -0.0211,0.0183 -0.0402,0.049 -0.0291,0.059 -0.0167,0.0608 z"
         id="path1198" />
    </g>
  </g>
  <g
     style="fill:none;stroke:#840000;stroke-width:0.1524;stroke-linecap:round;stroke-linejoin:round;stroke-opacity:1"
     id="g1200"
     transform="translate(-18.36522,-18.843021)">
    <path
       d="M 66.04,53.34 V 52.07"
       id="path1199" />
    <path
       d="m 66.04,58.42 v 1.27"
       id="path1200" />
  </g>
  <g
     style="fill:none;stroke:#006464;stroke-width:0.1524;stroke-linecap:round;stroke-linejoin:round;stroke-opacity:1"
     id="g1204"
     transform="translate(-18.36522,-18.843021)">
    <text
       x="73.547401"
       y="53.213001"
       textLength="3.8388"
       font-size="1.6933px"
       lengthAdjust="spacingAndGlyphs"
       text-anchor="middle"
       opacity="0"
       stroke-opacity="0"
       id="text1200">ARC</text>
    <g
       class="stroked-text"
       id="g1203">
      <desc
         id="desc1200">ARC</desc>
      <path
         style="fill:#006464;fill-opacity:1;fill-rule:evenodd;stroke:none"
         d="m 72.9069,53.1051 h -0.1378 l -0.2016,-0.4368 h -0.5531 l -0.2006,0.4368 h -0.143 l 0.2612,-0.5559 h 0.1401 0.4386 l -0.218,-0.4675 -0.2206,0.4675 H 71.932 l 0.3452,-0.7345 h 0.0313 z"
         id="path1201" />
      <path
         style="fill:#006464;fill-opacity:1;fill-rule:evenodd;stroke:none"
         d="m 73.4253,51.8151 0.0672,0.0016 0.0662,0.0034 0.0656,0.0067 0.027,0.0049 0.061,0.0192 0.0597,0.0322 0.0514,0.0437 0.0137,0.0154 0.0378,0.0565 0.0238,0.0642 0.0094,0.0643 7e-4,0.0228 -0.0049,0.0619 -0.0164,0.0626 -0.0281,0.0566 -0.0388,0.0491 -0.0489,0.0401 -0.0531,0.0287 -0.064,0.021 -0.061,0.0114 -0.0698,0.0065 -0.058,0.0017 0.4616,0.6155 h -0.1588 l -0.4607,-0.6155 h -0.0735 v 0.6155 h -0.1281 v -0.7346 h 0.1281 l 0.2209,0.0016 0.0668,-0.002 0.0618,-0.0067 0.0609,-0.0158 0.0549,-0.0318 0.0413,-0.0464 0.0258,-0.0568 0.0086,-0.0632 -0.0088,-0.0616 -0.0263,-0.0557 -0.0431,-0.0478 -0.0484,-0.0279 -0.064,-0.0155 -0.0632,-0.0057 -0.0611,-0.0014 h -0.2261 v 0.4367 h -0.1281 v -0.5558 h 0.2556 z"
         id="path1202" />
      <path
         style="fill:#006464;fill-opacity:1;fill-rule:evenodd;stroke:none"
         d="m 75.3729,52.0548 -0.1015,0.0775 -0.044,-0.0504 -0.0482,-0.044 -0.0524,-0.0375 -0.0567,-0.0309 -0.06,-0.0243 -0.063,-0.0174 -0.0658,-0.0104 -0.0686,-0.0035 -0.0661,0.0035 -0.064,0.0105 -0.0617,0.0176 -0.0596,0.0245 -0.0331,0.0171 -0.0544,0.0345 -0.0488,0.0392 -0.0489,0.0507 -0.0415,0.0571 -0.0093,0.0152 -0.028,0.0554 -0.0211,0.0583 -0.0143,0.0613 -0.0074,0.0642 -0.0011,0.0381 0.0039,0.0709 0.0118,0.0672 0.0197,0.0634 0.0275,0.0596 0.0353,0.0559 0.0433,0.0522 0.0195,0.0198 0.0523,0.0448 0.0565,0.0373 0.0606,0.0296 0.0646,0.0221 0.0688,0.0144 0.0729,0.0069 0.0303,6e-4 0.066,-0.0034 0.0633,-0.0103 0.0605,-0.017 0.0577,-0.0239 0.055,-0.0307 0.0523,-0.0375 0.0495,-0.0444 0.0467,-0.0512 0.1015,0.0769 -0.0443,0.0518 -0.0488,0.0463 -0.0533,0.041 -0.058,0.0356 -0.0351,0.018 -0.0644,0.0264 -0.0677,0.02 -0.0708,0.0135 -0.0633,0.0063 -0.0545,0.0017 -0.082,-0.0035 -0.0776,-0.0103 -0.0731,-0.0173 -0.0686,-0.0242 -0.0642,-0.0311 -0.0598,-0.038 -0.0553,-0.0449 -0.0508,-0.0519 -0.047,-0.0603 -0.039,-0.0641 -0.0311,-0.0679 -0.0231,-0.0716 -0.0151,-0.0755 -0.0064,-0.063 -0.0015,-0.0489 0.0031,-0.0681 0.0093,-0.0653 0.0154,-0.0626 0.0216,-0.0599 0.0278,-0.0571 0.034,-0.0543 0.0401,-0.0516 0.0463,-0.0489 0.051,-0.0444 0.0541,-0.0386 0.0572,-0.0326 0.0603,-0.0267 0.0634,-0.0208 0.0666,-0.0148 0.0697,-0.0089 0.0728,-0.003 0.0662,0.0024 0.0638,0.0073 0.0613,0.012 0.0684,0.0202 0.0651,0.0267 0.0608,0.0324 0.0559,0.0378 0.0508,0.043 0.0458,0.0482 z"
         id="path1203" />
    </g>
  </g>
  <g
     style="fill:none;stroke:#840000;stroke-width:0.1524;stroke-linecap:round;stroke-linejoin:round;stroke-opacity:1"
     id="g1205"
     transform="translate(-18.36522,-18.843021)">
    <path
       d="M 72.39,46.99 H 68.58"
       id="path1204" />
  </g>
  <g
     style="fill:none;stroke:#a90000;stroke-width:0.1524;stroke-linecap:round;stroke-linejoin:round;stroke-opacity:1"
     id="g1207"
     transform="translate(-18.36522,-18.843021)">
    <text
       x="70.485001"
       y="46.736"
       textLength="0.98509997"
       font-size="1.6933px"
       lengthAdjust="spacingAndGlyphs"
       text-anchor="middle"
       opacity="0"
       stroke-opacity="0"
       id="text1205">1</text>
    <g
       class="stroked-text"
       id="g1206">
      <desc
         id="desc1205">1</desc>
      <path
         style="fill:#a90000;fill-opacity:1;fill-rule:evenodd;stroke:none"
         d="m 70.3231,45.2297 h 0.2522 v 1.2904 h -0.1275 v -1.1713 h -0.2016 z"
         id="path1205" />
    </g>
  </g>
  <g
     style="fill:none;stroke:#840000;stroke-width:0.1524;stroke-linecap:round;stroke-linejoin:round;stroke-opacity:1"
     id="g1208"
     transform="translate(-18.36522,-18.843021)">
    <path
       d="M 72.39,49.53 H 68.58"
       id="path1207" />
  </g>
  <g
     style="fill:none;stroke:#a90000;stroke-width:0.1524;stroke-linecap:round;stroke-linejoin:round;stroke-opacity:1"
     id="g1210"
     transform="translate(-18.36522,-18.843021)">
    <text
       x="70.485001"
       y="49.276001"
       textLength="0.98509997"
       font-size="1.6933px"
       lengthAdjust="spacingAndGlyphs"
       text-anchor="middle"
       opacity="0"
       stroke-opacity="0"
       id="text1208">2</text>
    <g
       class="stroked-text"
       id="g1209">
      <desc
         id="desc1208">2</desc>
      <path
         style="fill:#a90000;fill-opacity:1;fill-rule:evenodd;stroke:none"
         d="m 70.1993,48.1667 h -0.1231 l 0.0061,-0.0661 0.0142,-0.0615 0.027,-0.066 0.0381,-0.0598 0.0415,-0.0462 0.0477,-0.0399 0.0607,-0.0361 0.0661,-0.0248 0.061,-0.0124 0.065,-0.0041 0.0641,0.004 0.0687,0.0149 0.0622,0.0258 0.0558,0.0368 0.0359,0.033 0.0426,0.0519 0.0322,0.0559 0.0217,0.0598 0.0112,0.0637 0.0018,0.0382 -0.0052,0.0668 -0.0153,0.0641 -0.0256,0.0615 -0.0064,0.012 -0.0371,0.0591 -0.0397,0.0534 -0.0416,0.0509 -0.0485,0.0556 -0.0362,0.0397 -0.3192,0.344 h 0.5921 v 0.1192 h -0.8713 l 0.4901,-0.5258 0.0441,-0.048 0.0462,-0.0523 0.0446,-0.0536 0.0387,-0.0515 0.0206,-0.0319 0.0274,-0.0593 0.0147,-0.0616 0.0029,-0.0423 -0.0079,-0.0647 -0.0236,-0.0588 -0.0394,-0.053 -0.0098,-0.0099 -0.0539,-0.0414 -0.0611,-0.026 -0.0681,-0.0108 -0.0145,-3e-4 -0.066,0.0062 -0.0594,0.0186 -0.0583,0.0351 -0.021,0.0183 -0.0402,0.049 -0.0292,0.059 -0.0166,0.0608 z"
         id="path1208" />
    </g>
  </g>
  <circle
     cx="5.7647791"
     cy="85.296982"
     r="9.9999997e-05"
     id="circle1273"
     style="fill:#009600;fill-opacity:1;stroke:#009600;stroke-width:0.1524;stroke-linecap:round;stroke-linejoin:round;stroke-opacity:1" />
  <circle
     cx="18.464783"
     cy="66.246979"
     r="9.9999997e-05"
     id="circle1274"
     style="fill:#009600;fill-opacity:1;stroke:#009600;stroke-width:0.1524;stroke-linecap:round;stroke-linejoin:round;stroke-opacity:1" />
  <circle
     cx="5.7647791"
     cy="28.14698"
     r="0.45719999"
     id="circle1280"
     style="fill:#009600;fill-opacity:1;stroke:#009600;stroke-width:0.1524;stroke-linecap:round;stroke-linejoin:round;stroke-opacity:1" />
  <circle
     cx="31.16478"
     cy="28.14698"
     r="0.45719999"
     id="circle1281"
     style="fill:#009600;fill-opacity:1;stroke:#009600;stroke-width:0.1524;stroke-linecap:round;stroke-linejoin:round;stroke-opacity:1" />
  <circle
     cx="18.464783"
     cy="9.0969791"
     r="0.45719999"
     id="circle1282"
     style="fill:#009600;fill-opacity:1;stroke:#009600;stroke-width:0.1524;stroke-linecap:round;stroke-linejoin:round;stroke-opacity:1" />
  <circle
     cx="31.16478"
     cy="85.296982"
     r="9.9999997e-05"
     id="circle1287"
     style="fill:#009600;fill-opacity:1;stroke:#009600;stroke-width:0.1524;stroke-linecap:round;stroke-linejoin:round;stroke-opacity:1" />
  <circle
     cx="70.534782"
     cy="85.296982"
     r="9.9999997e-05"
     id="circle1288"
     style="fill:#009600;fill-opacity:1;stroke:#009600;stroke-width:0.1524;stroke-linecap:round;stroke-linejoin:round;stroke-opacity:1" />
  <circle
     cx="70.534782"
     cy="28.14698"
     r="9.9999997e-05"
     id="circle1289"
     style="fill:#009600;fill-opacity:1;stroke:#009600;stroke-width:0.1524;stroke-linecap:round;stroke-linejoin:round;stroke-opacity:1" />
  <metadata
     id="metadata1290">
    <rdf:RDF>
      <cc:Work
         rdf:about="">
        <dc:title>SVG Image created as switching_states.svg date 2025/08/30 20:48:27 </dc:title>
      </cc:Work>
    </rdf:RDF>
  </metadata>
</svg>
